PathFileType	4	(X/Y/Z)	59_2_6_p0_0-524.trc
DataRate	CameraRate	NumFrames	NumMarkers	Units	OrigDataRate	OrigDataStartFrame	OrigNumFrames
48.0	48.0	7	27	m	48.0	65	525
Frame#	Time	RHip			RKnee			RAnkle			RBigToe			RSmallToe			RHeel			LHip			LKnee			LAnkle			LBigToe			LSmallToe			LHeel			Neck			Head			Nose			RShoulder			RElbow			RWrist			RThumb			RIndex			RPinky			LShoulder			LElbow			LWrist			LThumb			LIndex			LPinky			
		X1	Y1	Z1	X2	Y2	Z2	X3	Y3	Z3	X4	Y4	Z4	X5	Y5	Z5	X6	Y6	Z6	X7	Y7	Z7	X8	Y8	Z8	X9	Y9	Z9	X10	Y10	Z10	X11	Y11	Z11	X12	Y12	Z12	X13	Y13	Z13	X14	Y14	Z14	X15	Y15	Z15	X16	Y16	Z16	X17	Y17	Z17	X18	Y18	Z18	X19	Y19	Z19	X20	Y20	Z20	X21	Y21	Z21	X22	Y22	Z22	X23	Y23	Z23	X24	Y24	Z24	X25	Y25	Z25	X26	Y26	Z26	X27	Y27	Z27	
65	1.3541666666666667	0.3165090761655429	0.46123874968590506	0.9705072564646853	0.2893646200583572	0.5540996508646324	1.4250521471894309	0.27739259098557034	0.7537768113111538	1.885401112605094	0.26765411885849194	0.5246459023915294	1.9221202726905668	0.3243950592340108	0.5990443094254776	1.9322243327645918	0.2748861154607308	0.8266727636150908	1.9537407704152419	0.09880876339014832	0.5217438050465739	0.9803208342437983	0.1072979877591647	0.6167897928209523	1.4394943999322989	0.12760409327679892	0.7328124922390878	1.8621717695578863	0.1265728199177939	0.5305863110737872	1.9176099239354227	0.07202763470388585	0.5901032339119837	1.9173452291012603	0.1520013594828469	0.8336953659357824	1.9414520951149221	0.19652237162597871	0.299914532671338	0.37231431124694897	0.18730448625597862	0.20796643836668283	0.11346914778556157	0.1816135728290613	0.17156310732251895	0.26800850092125506	0.3675258137816516	0.3672823791724622	0.46080025372412314	0.4554144702868897	0.44405676726527626	0.7336909597871661	0.3497441640174232	0.2863013849220355	0.9299519374519053	0.22330614193790393	0.2301929767923538	0.9639578470135606	0.21429653506632024	0.2233668194951066	1.006297483257314	0.2625867942168038	0.28921068017126833	1.0335261407398002	0.02983259212182612	0.3728562458259546	0.46631525716021827	-0.01365527726373124	0.49057941757301116	0.7249063437770745	0.0825617836736017	0.30713958043498174	0.9237075850879518	0.1682545490860538	0.24862290163727957	0.953600771799839	0.17865528633742286	0.20465494370210605	0.9837527149393235	0.1384923499015633	0.26535571473713687	1.0369032578151993
66	1.375	0.3208146046110874	0.46267574054087984	0.9703839238710983	0.2893937050894832	0.554159552874728	1.425081387807147	0.2770239330402906	0.755914983557379	1.881221454871419	0.26799739645891474	0.5257625619531532	1.9223598367660613	0.3247605014247951	0.5999870398081606	1.9322750754756746	0.2748771740570644	0.8267899387486538	1.9535905254779702	0.09882918094409596	0.5220419162138832	0.9804483285759013	0.10727064381122361	0.6168285768962639	1.4395548265153395	0.12795969613582192	0.7309686577996475	1.8658334770627347	0.1276446397530676	0.5291553735033185	1.9130962576000954	0.06832900883188008	0.6028008808817257	1.9192205620375455	0.14868941119202922	0.8200533890895487	1.9358346670267625	0.19258298805307977	0.3118120251048951	0.3714756567134478	0.18725102896653434	0.2080276021213556	0.11352576597351517	0.18163703930198036	0.17159853741475972	0.26801095975733874	0.3676370411279149	0.36653731566322756	0.45721968587074585	0.4553006180927662	0.44399370696178975	0.7336797019708191	0.3496394134698508	0.2862648685151742	0.9296980112933959	0.2223933499687748	0.22991383284249853	0.9601875027908063	0.22148652567068214	0.2343988227093628	1.011155696072367	0.26262569407188363	0.2891305277073983	1.0332829696363084	0.029861389825776137	0.3728800447872516	0.4662394349966094	-0.013612901078864086	0.4904863625800714	0.7249086159926206	0.08273329337089765	0.30987486876270764	0.9243454064046567	0.16928258609276528	0.22678443346357396	0.9508283040661163	0.18279463614499186	0.19350862358708454	0.981961955447331	0.1389116463188318	0.26528986200068927	1.0371858329198484
67	1.3958333333333333	0.3201723687936664	0.4468831027041097	0.9685515855828798	0.28937621973425903	0.5541597456651515	1.425075217038938	0.27702688246429563	0.7558110418590551	1.881323417508343	0.26887899050272057	0.5276261568960123	1.9267758411867442	0.3245957917591909	0.5997025055828444	1.9322893703628623	0.274866940421438	0.8268467677442047	1.9535683745121886	0.09862041244485875	0.5217147066459716	0.9803782275632412	0.10726557272288643	0.6170352520645591	1.439715938602409	0.12803579368708345	0.7311736937970471	1.8659851061622683	0.12746275986898709	0.5335371575764382	1.9233058420903546	0.0682124005282136	0.6030724654316875	1.9193586906836047	0.14872100840297275	0.8195268538685384	1.9358924180378587	0.19258278870111692	0.3118304592735284	0.37148581081597803	0.1872178817723265	0.2080427899447055	0.11356466816563192	0.18162384140433985	0.17159713677013366	0.26801839532110877	0.36759084592049907	0.36654764084020564	0.45728869983604314	0.4552820562986175	0.44394958237513626	0.7337296442637692	0.34961490066169426	0.28607448941057156	0.9294377049540425	0.22229826884334397	0.2297230954527058	0.9599058817270324	0.21352147734783575	0.2206655662327184	1.0016221157214835	0.2624247473612718	0.28869141928967845	1.0330271497701262	0.029865517253624695	0.372841057866199	0.4661687642475739	-0.013609236105621364	0.49047549820495046	0.7248748414705287	0.08271902475146087	0.309709509920581	0.9242187587149763	0.1696361457467333	0.22655174861691918	0.9444213725699612	0.18305893819856986	0.1932767864756216	0.9757337313117418	0.13886814363682515	0.2648741172428751	1.0370175342864765
68	1.4166666666666667	0.32017416888772027	0.44678808161279887	0.968502929925521	0.2894248823838989	0.5542309328829443	1.425085869131005	0.28095521555801656	0.7711586585216605	1.887045894358618	0.27271985064188997	0.5407279231112988	1.9321049453005612	0.3248562930918142	0.6006730850271378	1.932280107437527	0.27490247471243134	0.8268683098869645	1.953609821111451	0.0985656860045574	0.5219179295654333	0.980347048805785	0.10730653542543248	0.6169741710012976	1.4396295352802333	0.12805274491692886	0.7310106654827608	1.8658653261636025	0.12857274123000131	0.5322144225005561	1.9187999418232566	0.06828377785722912	0.6029931253136624	1.9193367662932692	0.14876115563095207	0.8196788843905879	1.935840008259631	0.1925766609620783	0.3118433753996756	0.37139140288498795	0.18717980076881818	0.20799356076232758	0.11344753279422572	0.18458564568272245	0.18280389988546158	0.2696315733079203	0.3676164316895249	0.36648171233242666	0.4572497973205634	0.45530901204640156	0.44366194082650295	0.7336180035537371	0.3500259347497037	0.2847324478726192	0.9260660803736752	0.21870894425091408	0.21899940256120323	0.954996023240875	0.21027224853067752	0.20838113666065383	0.996498794982826	0.26286124929788984	0.26591040065805277	1.0295144432861938	0.029874811919460176	0.37276358807113996	0.46609073918164845	-0.013578095288658512	0.4904211262479557	0.7248823831288245	0.08277542173157637	0.3096180970678285	0.9242953420346863	0.16966438676342657	0.2260681969347112	0.9445428249311902	0.18739279122724964	0.18099917057122736	0.976931511591712	0.14243552165160842	0.25376121252298844	1.035034123558507
69	1.4375	0.31597535584890074	0.44527401551239104	0.9686734554849636	0.2885317673376353	0.5519616884991205	1.4203204764264523	0.280979888129475	0.7710672924740681	1.8872342411088876	0.26846498914742106	0.526289087429698	1.9265129161352674	0.32423711648311243	0.5983206253862173	1.9321902488955403	0.2748733118858583	0.8266591269423457	1.9536273889533684	0.09901869500208609	0.5209435621439816	0.9845111576963529	0.10733431791379353	0.6170144625864702	1.4395130018483118	0.12819018582305458	0.731181011044945	1.8659344866042331	0.1276503180225758	0.5294992184207	1.9132608495574563	0.06838000931504988	0.603203923377745	1.919320886000119	0.14885452921081302	0.8201518203033155	1.935916085848637	0.19259947724507331	0.31182737811892386	0.371504846579155	0.18720417097701433	0.20809144954287973	0.11357842280480226	0.18459868327680723	0.1828275704371318	0.2696188597574414	0.3676173170894353	0.3665128816560727	0.45725200621485546	0.4552729403185269	0.44365344876225965	0.7336197049912789	0.34999912175903203	0.28456759841176577	0.9259412173794095	0.218397706568639	0.21886625776642932	0.9547129398730748	0.21000981010108777	0.2085005666546035	0.9965627327200899	0.2550763672218793	0.2767734220296116	1.031717860793552	0.029747798860168297	0.3712125915216199	0.4625699682565071	-0.013554295318010301	0.4901891833486738	0.7248214827595267	0.08444710908718887	0.28549955294783497	0.9250572367844563	0.16950768795141408	0.2259477540100377	0.9449115279227915	0.18780356197658796	0.18210798673888118	0.9808517007452967	0.1403524090527726	0.24387578023532255	1.0333487900249885
70	1.4583333333333333	0.3164129348325809	0.4610819175913546	0.9705762061783167	0.28954249525585735	0.5546671195255359	1.425111231567675	0.27705598567981	0.7559620115145601	1.8812353377525435	0.2675223941734949	0.5242554608866862	1.92184776426189	0.324235850785823	0.598624552830198	1.9320518045682136	0.2749382162736049	0.8268998782659451	1.953707850363907	0.09888426630158775	0.5204279887142432	0.9843416235363569	0.10733662699742826	0.6172061381506445	1.4396989693614253	0.1279392407518452	0.7328543895864427	1.862073131451097	0.12755594436598267	0.5294998354028732	1.913291599617805	0.06842847841301461	0.6032949919128145	1.9192450449766834	0.15223056452510614	0.83381307895638	1.9415770042736158	0.19263068010420217	0.3118874263690652	0.3713346511861191	0.18723075761943875	0.2081577434658617	0.11354541364612954	0.18466876012105388	0.18324623732551823	0.269572737031994	0.36759330662749634	0.3672842382098003	0.4607453907748604	0.4551495103034823	0.4438816482564568	0.7336461646429933	0.35002439481913816	0.28454124405993797	0.9259083713362876	0.2156201839980611	0.20721620764582788	0.9535472371054791	0.2073397640048938	0.19812346817695892	0.9950484347050218	0.2586087034511706	0.26546441353869105	1.0295407615131722	0.029755258237258126	0.37118426376200575	0.46252964747504566	-0.0135339226423271	0.49017265721272263	0.724908075027556	0.08434635324233813	0.2852032312116856	0.9250171979034337	0.16936474496700069	0.2256718334825335	0.9444872676239303	0.18314273509193277	0.19146279416835682	0.9783741386975832	0.13934010142294137	0.24218260223534913	1.029326285129623
71	1.4791666666666667	0.3164431066897971	0.4610404201211158	0.9705927917599628	0.28924580504278546	0.5559128545103053	1.4215168023489604	0.2809719517926172	0.7713075704314849	1.8873248986177722	0.2720845025328383	0.5385522547236108	1.9318627235581396	0.32417055483143814	0.5982305845091058	1.932307285860939	0.27491376102986403	0.827148131594802	1.9537965044186845	0.09871777004886291	0.5215307110082772	0.9802559917662278	0.10705871421361511	0.6185697783125809	1.4361957134705652	0.12824845883283534	0.7310889907018531	1.8658885742714284	0.12652411087385843	0.5310150611977186	1.9178712790004158	0.06839941228084966	0.6030993762931954	1.9192534205915683	0.1522320590791328	0.8338847359636851	1.9416177368665077	0.19260896073132036	0.3119167912347589	0.37135316528622453	0.187244233220454	0.20814993975745338	0.11360415915866919	0.18468969085224043	0.18326834148179114	0.2695915867513013	0.36768060966043814	0.3665446105328254	0.45725748230039204	0.4551448459466616	0.4438488810458103	0.7336324389272685	0.35003082668613883	0.28456258937386536	0.9257636595176423	0.21596310967249066	0.2063874272511557	0.9504390323820547	0.20680268349947867	0.19636471902799307	0.991495087149168	0.25493477493323785	0.27646809786515664	1.0313473519754628	0.02972488777777147	0.37116442837963376	0.4625030884915676	-0.013512629487156277	0.4902510383547682	0.7249163983014237	0.08433865209341417	0.2852493146605728	0.9249990657698995	0.16928540503676787	0.22567777545817547	0.944511655601854	0.1830789102448807	0.19141713430976814	0.9783232905338558	0.13945689402011896	0.24200751681974322	1.0293796298968787
